<svg xmlns="http://www.w3.org/2000/svg" width="39.16" height="36.642" viewBox="0 0 39.16 36.642">
  <g id="Social_Buttons_Circle_Button_Facebook" data-name="Social Buttons / Circle Button / Facebook" transform="translate(0.004 0.002)">
    <path id="Facebook" d="M-105.321-1090.091c-6.338-3.4-9.4-9.941-8.542-17.007a1.218,1.218,0,0,1,.026-.142,1.22,1.22,0,0,1,.012-.135c1.769-12.141,15.672-19.044,27.012-15.849,8.874,2.5,12.449,12.756,11.919,21.207-.419,6.645-5.267,11.41-11.364,13.426a24.9,24.9,0,0,1-7.783,1.23A23.975,23.975,0,0,1-105.321-1090.091Zm2.672-1.04c9.613,4,25.993.653,25.686-12.215-.2-8.235-3.541-17.193-12.735-18.333-9.886-1.225-20.53,4.407-22.094,14.771C-112.564-1099.894-109.248-1093.871-102.649-1091.13Zm5.56-3.753a.984.984,0,0,1-.909-.591,1.1,1.1,0,0,1-.138-.456,57.945,57.945,0,0,1-.2-6.22c-.734-.017-1.466-.026-2.2-.051a1.05,1.05,0,0,1-1.008-.768,21.411,21.411,0,0,1-.23-2.64c-.011-.712-.08-1.567.547-2.051a4.756,4.756,0,0,1,2.152-.446c.339-.045.672-.074,1.006-.088-.025-2.209-.316-4.8,1.07-6.551,1.4-1.765,3.918-2.1,6.007-1.66,2.027.421,4.21,1.806,4.723,3.934.443,1.847-.722,3.8-2.607,3.693a.82.82,0,0,1-.7-.14.886.886,0,0,1-.491-.509c-.156-.239-.257-.493-.451-.781a.816.816,0,0,0-1.147-.261c-.346.286-.185,1.193-.157,1.555.016.211.035.42.052.628.777-.041,1.555-.056,2.334-.088a.9.9,0,0,1,.914.539,1.049,1.049,0,0,1,.132.507c.028,1.437.014,2.87.13,4.3a.872.872,0,0,1-.341.815.921.921,0,0,1-.706.232c-.634-.035-1.266-.03-1.9-.023-.255,0-.511.005-.766,0q-.007,3,.228,5.986a.867.867,0,0,1-.669.966,1.113,1.113,0,0,1-.378.081c-1.083.048-2.167.091-3.252.091Q-96.566-1094.869-97.088-1094.883Zm3.179-2.124q-.188-2.893-.15-5.794a.969.969,0,0,1,.965-1.312c.631.035,1.263.029,1.894.022.261,0,.522-.005.783,0-.031-.716-.04-1.432-.048-2.149-.713.023-1.425.049-2.136.108a1.032,1.032,0,0,1-.4-.041.918.918,0,0,1-.821-.991c.067-1.685-.729-4.234,1.228-5.159a3.1,3.1,0,0,1,2.581-.143,3.152,3.152,0,0,1,1.085.9,3.423,3.423,0,0,1,.326.483,1.08,1.08,0,0,0,.093-1.428,2.339,2.339,0,0,0-.684-.757,4.807,4.807,0,0,0-1.611-.911,5.119,5.119,0,0,0-3.565.032c-2.372,1.092-1.5,4.894-1.622,7.015a1.133,1.133,0,0,1-.073.346.89.89,0,0,1-.974.7,11.63,11.63,0,0,0-2.644.124c0,.019,0,.038,0,.057,0,.244,0,.492.014.74q.017.449.057.9c.71.016,1.419.025,2.13.05a1.232,1.232,0,0,1,.141.013.96.96,0,0,1,1.132,1,58.446,58.446,0,0,0,.091,6.24C-95.385-1096.961-94.647-1096.98-93.91-1097.007Zm-5.621-6.52Z" transform="translate(114 1124)" fill="#FEFFFF"/>
  </g>
  
</svg>
