<svg xmlns="http://www.w3.org/2000/svg" width="39.16" height="36.642" viewBox="0 0 39.16 36.642">
  <g id="Social_Buttons_Circle_Button_Instagram" data-name="Social Buttons / Circle Button / Instagram" transform="translate(0.004 0.002)">
    <path id="Instagram" d="M-284.321-1090.091c-6.338-3.4-9.4-9.941-8.542-17.007a1.221,1.221,0,0,1,.026-.142,1.224,1.224,0,0,1,.012-.135c1.769-12.141,15.673-19.044,27.012-15.849,8.874,2.5,12.449,12.756,11.919,21.207-.419,6.645-5.267,11.41-11.364,13.426a24.894,24.894,0,0,1-7.783,1.23A23.978,23.978,0,0,1-284.321-1090.091Zm2.672-1.04c9.613,4,25.993.653,25.686-12.215-.2-8.235-3.541-17.193-12.735-18.333-9.885-1.225-20.53,4.407-22.094,14.771C-291.564-1099.894-288.248-1093.871-281.649-1091.13Zm11.271-3.157c-.5-.014-.971-.028-1.41-.023-4.841.045-11.395.121-13.38-5.306-1.064-2.909-.949-6.369-.882-9.418.052-2.529.192-5.292,2.7-6.617,2.386-1.259,5.588-1.033,8.2-1.173,2.954-.155,5.9-.17,8.857-.116h.076c.035,0,.069,0,.1.006,2.336.163,3.38,1.916,3.686,4.106a50.319,50.319,0,0,1-.056,9.885c-.147,2.38.171,5.846-1.912,7.531a7.378,7.378,0,0,1-4.656,1.146C-269.5-1094.264-269.945-1094.276-270.378-1094.287Zm-4.256-20.467c-1.3.062-2.6.143-3.9.23-1.447.094-3.408.066-4.5,1.2-1.147,1.193-.91,3.407-.927,4.928-.018,1.5.021,3,.129,4.489.234,3.219,1.123,6.034,4.566,6.931a30.084,30.084,0,0,0,7.9.564c1.214-.021,2.442-.013,3.656-.09,2.18-.14,2.752-1.287,2.94-3.307.286-3.053.44-6.157.446-9.223,0-1.547.419-5.638-1.827-5.814h-.046q-1.6-.032-3.188-.034C-271.14-1114.875-272.887-1114.841-274.634-1114.754Zm-4.866,10.715a5.387,5.387,0,0,1,4.541-6.736c2.916-.513,6.185.879,6.694,4.039q.006.035.009.068a1.181,1.181,0,0,1,.029.214c.143,3.2-1.573,6.212-4.939,6.676a5.857,5.857,0,0,1-.8.055A5.661,5.661,0,0,1-279.5-1104.039Zm2.1-.241a3.592,3.592,0,0,0,4.214,2.393c2.165-.454,2.931-2.47,2.867-4.473a3.138,3.138,0,0,0-3.3-2.438C-275.875-1108.8-278.288-1107.085-277.4-1104.28Zm7.978-6.913a1.3,1.3,0,0,1,.056-1.465,1.293,1.293,0,0,1,1.053-.509,1.408,1.408,0,0,1,1.238.809,1.4,1.4,0,0,1,.269.521,1.224,1.224,0,0,1-.82,1.451,1.139,1.139,0,0,1-.37.06A1.789,1.789,0,0,1-269.419-1111.193Z" transform="translate(293 1124)" fill="#FEFFFF"/>
  </g>
</svg>
