<svg xmlns="http://www.w3.org/2000/svg" width="39.161" height="36.642" viewBox="0 0 39.161 36.642">
  <g id="Social_Buttons_Circle_Button_LinkedIn" data-name="Social Buttons / Circle Button / LinkedIn" transform="translate(0.004 0.002)">
    <path id="LinkedIn" d="M-406.32-1090.091c-6.338-3.4-9.4-9.941-8.543-17.007a1.209,1.209,0,0,1,.027-.146,1.219,1.219,0,0,1,.012-.131c1.768-12.141,15.672-19.044,27.012-15.849,8.873,2.5,12.449,12.756,11.919,21.207-.418,6.645-5.268,11.41-11.364,13.426a24.9,24.9,0,0,1-7.783,1.23A23.974,23.974,0,0,1-406.32-1090.091Zm2.671-1.04c9.614,4,25.993.653,25.686-12.215-.2-8.235-3.54-17.193-12.735-18.333-9.885-1.225-20.529,4.408-22.094,14.771C-413.565-1099.894-410.248-1093.871-403.649-1091.13Zm1.061-7.311q.088-5.515.17-11.03a1.047,1.047,0,0,1,2.093,0q-.089,5.515-.171,11.03a1.007,1.007,0,0,1-1.062,1.01A.971.971,0,0,1-402.588-1098.441Zm14.063-.346a37.928,37.928,0,0,0-.342-6.868c-.324-1.479-1.2-2.944-2.9-2.34a3.913,3.913,0,0,0-2.41,2.193,1.175,1.175,0,0,1-.112.22q.142,3.356.418,6.707c.112,1.343-1.981,1.333-2.092,0q-.435-5.242-.537-10.506a1.047,1.047,0,0,1,2.093,0q.005.273.012.546c1.6-1.408,3.831-2.173,5.579-.849,3.02,2.288,2.282,7.61,2.379,10.9a.955.955,0,0,1-1.015,1.01A1.025,1.025,0,0,1-388.525-1098.787Zm-13.782-14.883v-1.751a1.063,1.063,0,0,1,1.047-1.046,1.059,1.059,0,0,1,1.047,1.046v1.751a1.064,1.064,0,0,1-1.047,1.047h-.038A1.064,1.064,0,0,1-402.306-1113.67Z" transform="translate(415 1124)" fill="#FEFFFF"/>
  </g>
</svg>
