<svg xmlns="http://www.w3.org/2000/svg" width="39.16" height="36.642" viewBox="0 0 39.16 36.642">
  <g id="Social_Buttons_Circle_Button_Pinterest" data-name="Social Buttons / Circle Button / Pinterest" transform="translate(0.003 0.002)">
    <path id="Pinterest" d="M-223.321-1090.091c-6.338-3.4-9.4-9.941-8.542-17.007a1.214,1.214,0,0,1,.026-.142,1.22,1.22,0,0,1,.012-.135c1.769-12.141,15.672-19.044,27.012-15.849,8.873,2.5,12.449,12.756,11.919,21.207-.419,6.645-5.267,11.41-11.364,13.426a24.9,24.9,0,0,1-7.783,1.23A23.975,23.975,0,0,1-223.321-1090.091Zm2.672-1.04c9.613,4,25.993.653,25.686-12.215-.2-8.235-3.541-17.193-12.735-18.333-9.886-1.225-20.53,4.408-22.095,14.771C-230.565-1099.894-227.248-1093.871-220.648-1091.13Zm2.71-7.22c3.244-2.633,4.171-6.907,4.7-10.859.175-1.318,2.271-1.333,2.093,0a36.922,36.922,0,0,1-1.039,5.308c1.768.356,3.949.581,5.3-.6,1.636-1.423,1.057-3.987-.147-5.417a8.017,8.017,0,0,0-5.166-2.585,5.006,5.006,0,0,0-3.331.586c-.9.586-2.644,3.691-.509,3.416,1.337-.171,1.319,1.922,0,2.093a2.846,2.846,0,0,1-3.125-2.5,5.019,5.019,0,0,1,1.953-4.357c2.8-2.336,7.29-1.461,10.07.478s4.272,5.32,2.633,8.5c-1.579,3.057-5.36,2.951-8.364,2.372a12.34,12.34,0,0,1-3.593,5.044,1.071,1.071,0,0,1-.686.253C-218.01-1096.619-218.765-1097.678-217.939-1098.35Z" transform="translate(232 1124)" fill="#FEFFFF"/>
  </g>
</svg>
