<svg xmlns="http://www.w3.org/2000/svg" width="39.16" height="36.642" viewBox="0 0 39.16 36.642">
  <g id="Social_Buttons_Circle_Button_Twitter" data-name="Social Buttons / Circle Button / Twitter" transform="translate(0.004 0.002)">
    <path id="Twitter" d="M-164.32-1090.091c-6.338-3.4-9.4-9.941-8.543-17.007a1.222,1.222,0,0,1,.027-.146,1.226,1.226,0,0,1,.012-.13c1.769-12.141,15.672-19.044,27.012-15.849,8.873,2.5,12.449,12.756,11.918,21.207-.419,6.645-5.267,11.41-11.363,13.426a24.9,24.9,0,0,1-7.783,1.23A23.974,23.974,0,0,1-164.32-1090.091Zm2.671-1.04c9.613,4,25.993.653,25.686-12.215-.2-8.235-3.541-17.193-12.735-18.333-9.885-1.225-20.529,4.408-22.094,14.771C-171.565-1099.894-168.247-1093.871-161.649-1091.13Zm-3.439-8.2a1.063,1.063,0,0,1,.251-1.912c1.748-.645,3.111-1.709,4.754-2.49l.461-.321c.366.122.408.1.122-.059a6.174,6.174,0,0,0-.736-.575,5.986,5.986,0,0,1-1.082-1.389c-1.4-2.473-1.081-5.546-.526-8.211a1.054,1.054,0,0,1,1.538-.625c2.342,1.676,4.365,4.2,7.073,5.294.663-3.021,4.373-4.42,7.214-2.893a4.663,4.663,0,0,1,2.374,2.86c.262-.141.522-.286.773-.447a1.057,1.057,0,0,1,1.43.376,1.07,1.07,0,0,1-.377,1.43c-.181.116-.366.223-.553.327l.553.354c1.134.722.08,2.533-1.057,1.807l-.671-.428a15.115,15.115,0,0,1-1.09,3.466c-2.064,4.652-6.314,6.692-10.785,6.692A16.384,16.384,0,0,1-165.088-1099.33Zm16.4-1.075a11.285,11.285,0,0,0,3.2-7.126,2.992,2.992,0,0,0-2.288-3.439,2.616,2.616,0,0,0-3.436,2.749.878.878,0,0,1-.834,1,1.084,1.084,0,0,1-.5.006c-3.083-.653-5.217-2.966-7.557-4.91a9.613,9.613,0,0,0,.138,3.846,4.523,4.523,0,0,0,1.713,2.49,2.71,2.71,0,0,1,1.039,1.106c.572,1.489-1.248,2.4-2.243,3.058a20.831,20.831,0,0,1-2.858,1.6C-158.143-1097.7-152.4-1096.956-148.687-1100.4Z" transform="translate(173 1124)" fill="#FEFFFF"/>
  </g>
</svg>
